<svg width="214" height="45" viewBox="0 0 214 45" fill="none" xmlns="http://www.w3.org/2000/svg">
<path d="M10.3312 1.64295C10.3312 1.19889 9.97121 0.83891 9.52715 0.83891H0.819423C0.375363 0.83891 0.0153809 1.19889 0.0153809 1.64295V10.8894C0.0153809 11.3335 0.375364 11.6935 0.819424 11.6935H9.52715C9.97121 11.6935 10.3312 11.3335 10.3312 10.8894V1.64295Z" fill="white"/>
<path d="M15.4946 1.64295C15.4946 1.19889 15.8545 0.83891 16.2986 0.83891H25.0009C25.4449 0.83891 25.8049 1.19889 25.8049 1.64295V10.8894C25.8049 11.3335 25.4449 11.6935 25.0009 11.6935H16.2986C15.8545 11.6935 15.4946 11.3335 15.4946 10.8894V1.64295Z" fill="white"/>
<path d="M41.2896 1.64295C41.2896 1.19889 40.9296 0.83891 40.4855 0.83891H31.7723C31.3283 0.83891 30.9683 1.19889 30.9683 1.64295V10.8894C30.9683 11.3335 31.3283 11.6935 31.7723 11.6935H40.4855C40.9296 11.6935 41.2896 11.3335 41.2896 10.8894V1.64295Z" fill="white"/>
<path d="M30.9683 17.9248C30.9683 17.4807 31.3283 17.1208 31.7723 17.1208H40.4855C40.9296 17.1208 41.2896 17.4807 41.2896 17.9248V27.1713C41.2896 27.6154 40.9296 27.9753 40.4855 27.9753H31.7723C31.3283 27.9753 30.9683 27.6154 30.9683 27.1713V17.9248Z" fill="white"/>
<path d="M41.2896 34.2067C41.2896 33.7626 40.9296 33.4026 40.4855 33.4026H31.7723C31.3283 33.4026 30.9683 33.7626 30.9683 34.2067V43.4532C30.9683 43.8972 31.3283 44.2572 31.7723 44.2572H40.4855C40.9296 44.2572 41.2896 43.8972 41.2896 43.4532V34.2067Z" fill="white"/>
<path d="M15.4946 17.9248C15.4946 17.4807 15.8545 17.1208 16.2986 17.1208H25.0009C25.4449 17.1208 25.8049 17.4807 25.8049 17.9248V27.1713C25.8049 27.6154 25.4449 27.9753 25.0009 27.9753H16.2986C15.8545 27.9753 15.4946 27.6154 15.4946 27.1713V17.9248Z" fill="white"/>
<path d="M57.2592 8.97405C56.8151 8.97405 56.4551 9.33403 56.4551 9.77809V19.6216C56.4551 20.0656 56.8151 20.4256 57.2592 20.4256H75.7067C76.1508 20.4256 76.5108 20.7856 76.5108 21.2296V27.6686C76.5108 28.1126 76.1508 28.4726 75.7067 28.4726H57.2592C56.8151 28.4726 56.4551 28.8326 56.4551 29.2767V43.4532C56.4551 43.8972 56.0951 44.2572 55.6511 44.2572H47.2313C46.7873 44.2572 46.4273 43.8972 46.4273 43.4532V1.73106C46.4273 1.287 46.7873 0.92702 47.2313 0.92702H78.3685C78.8125 0.92702 79.1725 1.287 79.1725 1.73106V8.17001C79.1725 8.61407 78.8125 8.97405 78.3685 8.97405H57.2592Z" fill="white"/>
<path d="M112.889 35.4691C112.765 35.1683 112.471 34.9722 112.146 34.9722H93.1039C92.7784 34.9722 92.4851 35.1683 92.3608 35.4691L88.9337 43.7603C88.8094 44.061 88.5161 44.2572 88.1907 44.2572H79.6916C79.1094 44.2572 78.7202 43.6576 78.9572 43.1258L97.5533 1.40373C97.6825 1.11379 97.9703 0.92702 98.2877 0.92702H107.149C107.466 0.92702 107.753 1.11338 107.883 1.40286L126.538 43.1249C126.776 43.6568 126.387 44.2572 125.804 44.2572H117.059C116.734 44.2572 116.44 44.061 116.316 43.7603L112.889 35.4691ZM108.324 27.3584C108.897 27.3584 109.286 26.7761 109.066 26.2467L103.399 12.5627C103.125 11.9009 102.187 11.9009 101.913 12.5627L96.2454 26.2467C96.0262 26.7761 96.4153 27.3584 96.9883 27.3584H108.324Z" fill="white"/>
<path d="M145.777 45C142.352 45 139.03 44.5461 135.811 43.6382C132.907 42.7706 130.519 41.6789 128.649 40.3631C128.344 40.1482 128.244 39.7454 128.398 39.4049L131.132 33.3392C131.342 32.8731 131.928 32.7195 132.355 33.0001C134.034 34.1023 135.97 35.0072 138.163 35.715C140.722 36.5403 143.281 36.953 145.839 36.953C148.686 36.953 150.791 36.5403 152.153 35.715C153.515 34.8484 154.196 33.7135 154.196 32.3104C154.196 31.2788 153.783 30.4328 152.958 29.7725C152.174 29.071 151.142 28.5139 149.863 28.1012C148.625 27.6886 146.933 27.2346 144.787 26.7394C141.485 25.9554 138.782 25.1713 136.678 24.3872C134.573 23.6031 132.757 22.3445 131.231 20.6113C129.745 18.8781 129.002 16.5672 129.002 13.6785C129.002 11.1612 129.683 8.89152 131.045 6.86944C132.407 4.8061 134.449 3.17606 137.173 1.97933C139.938 0.782588 143.301 0.184219 147.263 0.184219C150.028 0.184219 152.731 0.514353 155.372 1.17462C157.759 1.77154 159.877 2.60454 161.725 3.67364C162.063 3.86934 162.197 4.28629 162.05 4.64833L159.554 10.7874C159.372 11.2371 158.835 11.4226 158.406 11.1956C154.671 9.21936 150.936 8.23125 147.201 8.23125C144.395 8.23125 142.311 8.68519 140.949 9.59306C139.628 10.5009 138.968 11.6977 138.968 13.1833C138.968 14.6689 139.732 15.7831 141.258 16.5259C142.827 17.2274 145.199 17.929 148.377 18.6305C151.678 19.4146 154.381 20.1986 156.486 20.9827C158.591 21.7668 160.386 23.0048 161.871 24.6967C163.398 26.3887 164.162 28.679 164.162 31.5676C164.162 34.0437 163.46 36.3133 162.057 38.3767C160.695 40.3987 158.632 42.0082 155.867 43.2049C153.102 44.4016 149.739 45 145.777 45Z" fill="white"/>
<path d="M199.755 35.4691C199.631 35.1683 199.337 34.9722 199.012 34.9722H179.97C179.644 34.9722 179.351 35.1683 179.227 35.4691L175.8 43.7603C175.675 44.061 175.382 44.2572 175.057 44.2572H166.557C165.975 44.2572 165.586 43.6576 165.823 43.1258L184.419 1.40373C184.548 1.11379 184.836 0.92702 185.154 0.92702H194.014C194.332 0.92702 194.619 1.11338 194.748 1.40286L213.404 43.1249C213.642 43.6568 213.253 44.2572 212.67 44.2572H203.925C203.6 44.2572 203.306 44.061 203.182 43.7603L199.755 35.4691ZM195.189 27.3584C195.762 27.3584 196.152 26.7761 195.932 26.2467L190.265 12.5627C189.991 11.9009 189.053 11.9009 188.779 12.5627L183.111 26.2467C182.892 26.7761 183.281 27.3584 183.854 27.3584H195.189Z" fill="white"/>
</svg>
