<svg width="18" height="26" viewBox="0 0 18 26" fill="none" xmlns="http://www.w3.org/2000/svg">
<path fill-rule="evenodd" clip-rule="evenodd" d="M9.80349 0.17925C9.59061 0.397525 0.106493 15.4085 0.012421 15.6761C-0.0288843 15.7935 0.0344356 15.9461 0.178437 16.076C0.404368 16.28 0.529192 16.2861 4.41496 16.2861H8.41874L7.882 20.9702C7.38225 25.3305 7.35808 25.667 7.53204 25.8404C7.65119 25.9594 7.84035 26.0157 8.05471 25.9962C8.37381 25.9671 8.62981 25.5809 13.1953 18.241C16.3164 13.2231 18 10.4166 18 10.232C18 10.0756 17.9362 9.91036 17.8582 9.86478C17.7802 9.81919 15.8753 9.75887 13.625 9.7307L9.53376 9.67948L10.2007 5.07615C10.9244 0.080611 10.926 0 10.3036 0C10.1247 0 9.89972 0.0807136 9.80349 0.17925Z" fill="#D1D1D1"/>
</svg>
