<svg width="26" height="26" viewBox="0 0 26 26" fill="none" xmlns="http://www.w3.org/2000/svg">
<path fill-rule="evenodd" clip-rule="evenodd" d="M5.08579 0.163136C2.71498 0.672426 0.664286 2.74257 0.164676 5.13069C-0.0548921 6.18043 -0.0548921 19.8123 0.164676 20.862C0.669359 23.2748 2.72442 25.3305 5.13652 25.8353C6.18597 26.0549 19.814 26.0549 20.8635 25.8353C23.2756 25.3305 25.3306 23.2748 25.8353 20.862C26.0549 19.8123 26.0549 6.18043 25.8353 5.13069C25.3306 2.71791 23.2756 0.662277 20.8635 0.157453C19.844 -0.0558848 6.08237 -0.0509117 5.08579 0.163136ZM20.1418 2.23572C21.9978 2.53969 23.4538 3.996 23.7576 5.85261C23.8864 6.63917 23.8864 19.3536 23.7576 20.1401C23.4538 21.9967 21.9978 23.453 20.1418 23.757C19.3554 23.8858 6.64459 23.8858 5.85824 23.757C4.00216 23.453 2.54624 21.9967 2.24236 20.1401C2.1136 19.3536 2.1136 6.63917 2.24236 5.85261C2.53863 4.04299 4.00784 2.53806 5.76712 2.24221C6.47118 2.12377 19.4229 2.11788 20.1418 2.23572ZM6.85127 6.84591C6.60502 7.09224 6.50629 7.28243 6.50629 7.51069C6.50629 7.94396 6.73956 8.36424 7.0615 8.5109C7.25763 8.60031 8.81825 8.63218 13 8.63218C17.1817 8.63218 18.7424 8.60031 18.9385 8.5109C19.2604 8.36424 19.4937 7.94396 19.4937 7.51069C19.4937 7.28243 19.395 7.09224 19.1487 6.84591L18.8038 6.50084H13H7.19625L6.85127 6.84591ZM7.14704 12.0285C6.80896 12.1756 6.50629 12.6328 6.50629 12.9964C6.50629 13.3706 6.81241 13.8194 7.16926 13.9686C7.68023 14.1821 18.3198 14.1821 18.8307 13.9686C19.1876 13.8194 19.4937 13.3706 19.4937 12.9964C19.4937 12.6222 19.1876 12.1734 18.8307 12.0242C18.3276 11.8139 7.63112 11.8178 7.14704 12.0285ZM7.02477 17.5022C6.708 17.6778 6.51441 18.0387 6.50984 18.4617C6.5072 18.7159 6.59335 18.8888 6.85127 19.1468L7.19625 19.4919H13H18.8038L19.1487 19.1468C19.395 18.9005 19.4937 18.7103 19.4937 18.482C19.4937 18.0488 19.2604 17.6285 18.9385 17.4818C18.5331 17.2971 7.36021 17.3162 7.02477 17.5022Z" fill="white"/>
</svg>
